<?xml version="1.0" encoding="utf-8"?>
<svg viewBox="0 0 500 500" xmlns="http://www.w3.org/2000/svg">
  <g transform="matrix(0.850257, 0, 0, 0.850257, -208.708878, -228.22673)" style="">
    <path fill="#F1AD1E" d="M829.513,579.789c-2.166-23.494-22.186-41.05-45.455-40.476l-1.59,0.062l-0.408,0.02l-15.758,0.607 l-1.07,0.039c-2.418,0.102-4.82,0.122-7.205,0.062c-38.086-0.965-72.033-21.822-90.684-53.306c-0.021-0.009-0.021-0.02-0.021-0.029 c-0.197-0.341-0.393-0.673-0.598-1.014c-0.012-0.029-0.031-0.048-0.045-0.078v-0.01c-27.518-46.17-79.893-75.006-136.981-69.759 c-79.198,7.289-137.488,77.401-130.209,156.589c7.288,79.199,77.401,137.488,156.59,130.209 c46.602-4.293,85.953-30.324,108.988-67.166c0.01-0.01,0.01-0.02,0.018-0.041c0.252-0.422,0.514-0.844,0.783-1.268 c0.037-0.051,0.064-0.104,0.102-0.164c5.805-8.928,15.486-15.211,26.92-16.258c19.797-1.816,37.328,12.752,39.152,32.549 c0.719,7.775-1.1,15.197-4.756,21.461c-0.287,0.484-0.586,0.959-0.885,1.434c-34.5,55.469-93.652,94.699-163.721,101.146 c-118.792,10.928-223.956-76.516-234.883-195.299c-10.929-118.792,76.516-223.957,195.308-234.885 c52.054-4.784,101.498,9.32,141.542,36.673c25.746,17.592,47.605,40.669,63.77,67.713c0.238,0.389,0.465,0.77,0.684,1.159 c0.021,0.05,0.055,0.088,0.086,0.136c6.963,11.201,19.857,18.135,33.893,16.846c19.797-1.814,34.375-19.346,32.561-39.143 c-0.465-5.094-1.977-9.84-4.293-14.057c-0.01-0.01-0.021-0.029-0.021-0.039c-0.326-0.556-0.652-1.111-0.988-1.666 c-18.684-31.303-43.078-58.617-71.613-80.625c-55.574-42.853-126.842-65.631-202.22-58.688 c-158.387,14.568-274.977,154.782-260.398,313.168C270.673,744.08,410.887,860.67,569.272,846.102 c139.168-12.811,246.068-122.625,260.07-256.533c0.008-0.031,0.006-0.061,0.016-0.09c0.061-0.635,0.131-1.279,0.191-1.932 c0.018-0.07,0.023-0.141,0.02-0.221C829.767,584.863,829.749,582.342,829.513,579.789z M549.485,631.006 c-39.593,3.639-74.656-25.506-78.294-65.1c-3.641-39.605,25.506-74.656,65.1-78.294c39.605-3.641,74.656,25.505,78.294,65.099 C618.226,592.314,589.079,627.365,549.485,631.006z"/>
    <g display="none" opacity="0.5">
      <rect x="243.538" y="283.194" transform="matrix(-0.9989 0.0461 -0.0461 -0.9989 573.4943 625.1621)" display="inline" fill="none" stroke="#000000" stroke-miterlimit="10" width="72" height="72"/>
      <rect x="315.462" y="279.875" transform="matrix(-0.9989 0.0461 -0.0461 -0.9989 717.1127 615.21)" display="inline" fill="none" stroke="#000000" stroke-miterlimit="10" width="71.999" height="71.999"/>
      <rect x="387.385" y="276.555" transform="matrix(-0.9989 0.0461 -0.0461 -0.9989 860.7307 605.2563)" display="inline" fill="none" stroke="#000000" stroke-miterlimit="10" width="72" height="72"/>
      <rect x="459.308" y="273.235" transform="matrix(-0.9989 0.0461 -0.0461 -0.9989 1004.3488 595.3044)" display="inline" fill="none" stroke="#000000" stroke-miterlimit="10" width="72" height="72"/>
      <rect x="531.232" y="269.916" transform="matrix(-0.9989 0.0461 -0.0461 -0.9989 1147.9636 585.3552)" display="inline" fill="none" stroke="#000000" stroke-miterlimit="10" width="72" height="71.999"/>
      <rect x="603.155" y="266.596" transform="matrix(-0.9989 0.0461 -0.0461 -0.9989 1291.5812 575.4046)" display="inline" fill="none" stroke="#000000" stroke-miterlimit="10" width="72" height="71.999"/>
      <rect x="675.08" y="263.277" transform="matrix(-0.9989 0.0461 -0.0461 -0.9989 1435.2032 565.4429)" display="inline" fill="none" stroke="#000000" stroke-miterlimit="10" width="71.998" height="72"/>
      <rect x="747.002" y="259.957" transform="matrix(-0.9989 0.0461 -0.0461 -0.9989 1578.8154 555.5008)" display="inline" fill="none" stroke="#000000" stroke-miterlimit="10" width="72" height="71.999"/>
      <rect x="246.857" y="355.118" transform="matrix(-0.9989 0.0461 -0.0461 -0.9989 583.4453 768.7794)" display="inline" fill="none" stroke="#000000" stroke-miterlimit="10" width="72" height="71.999"/>
      <rect x="318.781" y="351.798" transform="matrix(-0.9989 0.0461 -0.0461 -0.9989 727.0685 758.8233)" display="inline" fill="none" stroke="#000000" stroke-miterlimit="10" width="72" height="72"/>
      <rect x="390.705" y="348.478" transform="matrix(-0.9989 0.0461 -0.0461 -0.9989 870.6808 748.8762)" display="inline" fill="none" stroke="#000000" stroke-miterlimit="10" width="71.999" height="72"/>
      <rect x="462.628" y="345.159" transform="matrix(-0.9989 0.0461 -0.0461 -0.9989 1014.2977 738.9255)" display="inline" fill="none" stroke="#000000" stroke-miterlimit="10" width="72" height="72"/>
      <rect x="534.552" y="341.839" transform="matrix(-0.9989 0.0461 -0.0461 -0.9989 1157.9204 728.9651)" display="inline" fill="none" stroke="#000000" stroke-miterlimit="10" width="71.999" height="72"/>
      <rect x="606.474" y="338.519" transform="matrix(-0.9989 0.0461 -0.0461 -0.9989 1301.532 719.0217)" display="inline" fill="none" stroke="#000000" stroke-miterlimit="10" width="72" height="72"/>
      <rect x="678.398" y="335.2" transform="matrix(-0.9989 0.0461 -0.0461 -0.9989 1445.1501 709.0708)" display="inline" fill="none" stroke="#000000" stroke-miterlimit="10" width="72" height="72"/>
      <rect x="750.321" y="331.88" transform="matrix(-0.9989 0.0461 -0.0461 -0.9989 1588.7709 699.108)" display="inline" fill="none" stroke="#000000" stroke-miterlimit="10" width="72" height="72"/>
      <rect x="250.178" y="427.041" transform="matrix(-0.9989 0.0461 -0.0461 -0.9989 593.3984 912.3962)" display="inline" fill="none" stroke="#000000" stroke-miterlimit="10" width="71.999" height="72"/>
      <rect x="322.1" y="423.721" transform="matrix(-0.9989 0.0461 -0.0461 -0.9989 737.0143 902.4456)" display="inline" fill="none" stroke="#000000" stroke-miterlimit="10" width="72" height="72"/>
      <rect x="394.025" y="420.402" transform="matrix(-0.9989 0.0461 -0.0461 -0.9989 880.6328 892.4933)" display="inline" fill="none" stroke="#000000" stroke-miterlimit="10" width="71.999" height="71.999"/>
      <rect x="465.948" y="417.083" transform="matrix(-0.9989 0.0461 -0.0461 -0.9989 1024.2496 882.5427)" display="inline" fill="none" stroke="#000000" stroke-miterlimit="10" width="72" height="71.999"/>
      <rect x="537.871" y="413.763" transform="matrix(-0.9989 0.0461 -0.0461 -0.9989 1167.8732 872.5836)" display="inline" fill="none" stroke="#000000" stroke-miterlimit="10" width="72" height="72"/>
      <rect x="609.794" y="410.443" transform="matrix(-0.9989 0.0461 -0.0461 -0.9989 1311.4829 862.6389)" display="inline" fill="none" stroke="#000000" stroke-miterlimit="10" width="72" height="71.999"/>
      <rect x="681.718" y="407.124" transform="matrix(-0.9989 0.0461 -0.0461 -0.9989 1455.1011 852.688)" display="inline" fill="none" stroke="#000000" stroke-miterlimit="10" width="72" height="71.999"/>
      <rect x="753.642" y="403.804" transform="matrix(-0.9989 0.0461 -0.0461 -0.9989 1598.7252 842.7251)" display="inline" fill="none" stroke="#000000" stroke-miterlimit="10" width="71.998" height="72"/>
      <rect x="253.497" y="498.965" transform="matrix(-0.9989 0.0461 -0.0461 -0.9989 603.349 1056.0132)" display="inline" fill="none" stroke="#000000" stroke-miterlimit="10" width="72" height="71.999"/>
      <rect x="325.421" y="495.645" transform="matrix(-0.9989 0.0461 -0.0461 -0.9989 746.9675 1046.0629)" display="inline" fill="none" stroke="#000000" stroke-miterlimit="10" width="71.999" height="72"/>
      <rect x="397.344" y="492.326" transform="matrix(-0.9989 0.0461 -0.0461 -0.9989 890.5903 1036.1051)" display="inline" fill="none" stroke="#000000" stroke-miterlimit="10" width="72" height="72"/>
      <rect x="469.268" y="489.006" transform="matrix(-0.9989 0.0461 -0.0461 -0.9989 1034.2021 1026.1604)" display="inline" fill="none" stroke="#000000" stroke-miterlimit="10" width="72" height="72.001"/>
      <rect x="541.191" y="485.686" transform="matrix(-0.9989 0.0461 -0.0461 -0.9989 1177.8185 1016.2082)" display="inline" fill="none" stroke="#000000" stroke-miterlimit="10" width="72" height="72"/>
      <rect x="613.115" y="482.366" transform="matrix(-0.9989 0.0461 -0.0461 -0.9989 1321.4431 1006.2466)" display="inline" fill="none" stroke="#000000" stroke-miterlimit="10" width="71.998" height="72"/>
      <rect x="685.037" y="479.047" transform="matrix(-0.9989 0.0461 -0.0461 -0.9989 1465.0521 996.3057)" display="inline" fill="none" stroke="#000000" stroke-miterlimit="10" width="72" height="72.001"/>
      <rect x="756.961" y="475.727" transform="matrix(-0.9989 0.0461 -0.0461 -0.9989 1608.6702 986.3538)" display="inline" fill="none" stroke="#000000" stroke-miterlimit="10" width="72" height="72"/>
      <rect x="256.816" y="570.888" transform="matrix(-0.9989 0.0461 -0.0461 -0.9989 613.308 1199.6265)" display="inline" fill="none" stroke="#000000" stroke-miterlimit="10" width="72" height="72"/>
      <rect x="328.74" y="567.568" transform="matrix(-0.9989 0.0461 -0.0461 -0.9989 756.9102 1189.6852)" display="inline" fill="none" stroke="#000000" stroke-miterlimit="10" width="72" height="72"/>
      <rect x="400.664" y="564.249" transform="matrix(-0.9989 0.0461 -0.0461 -0.9989 900.5436 1179.7223)" display="inline" fill="none" stroke="#000000" stroke-miterlimit="10" width="71.999" height="72"/>
      <rect x="472.586" y="560.93" transform="matrix(-0.9989 0.0461 -0.0461 -0.9989 1044.144 1169.7834)" display="inline" fill="none" stroke="#000000" stroke-miterlimit="10" width="72.001" height="71.998"/>
      <rect x="544.511" y="557.61" transform="matrix(-0.9989 0.0461 -0.0461 -0.9989 1187.7791 1159.8181)" display="inline" fill="none" stroke="#000000" stroke-miterlimit="10" width="71.998" height="72"/>
      <rect x="616.433" y="554.29" transform="matrix(-0.9989 0.0461 -0.0461 -0.9989 1331.3944 1149.865)" display="inline" fill="none" stroke="#000000" stroke-miterlimit="10" width="72" height="72"/>
      <rect x="688.357" y="550.97" transform="matrix(-0.9989 0.0461 -0.0461 -0.9989 1474.9974 1139.9335)" display="inline" fill="none" stroke="#000000" stroke-miterlimit="10" width="72" height="72"/>
      <rect x="760.28" y="547.651" transform="matrix(-0.9989 0.0461 -0.0461 -0.9989 1618.6285 1129.9612)" display="inline" fill="none" stroke="#000000" stroke-miterlimit="10" width="72" height="72"/>
      <rect x="260.137" y="642.811" transform="matrix(-0.9989 0.0461 -0.0461 -0.9989 623.2614 1343.2444)" display="inline" fill="none" stroke="#000000" stroke-miterlimit="10" width="71.999" height="72"/>
      <rect x="332.059" y="639.492" transform="matrix(-0.9989 0.0461 -0.0461 -0.9989 766.8601 1333.3015)" display="inline" fill="none" stroke="#000000" stroke-miterlimit="10" width="72" height="71.998"/>
      <rect x="403.984" y="636.173" transform="matrix(-0.9989 0.0461 -0.0461 -0.9989 910.4966 1323.3403)" display="inline" fill="none" stroke="#000000" stroke-miterlimit="10" width="71.999" height="72"/>
      <rect x="475.907" y="632.852" transform="matrix(-0.9989 0.0461 -0.0461 -0.9989 1054.1128 1313.3867)" display="inline" fill="none" stroke="#000000" stroke-miterlimit="10" width="72" height="72"/>
      <rect x="547.83" y="629.533" transform="matrix(-0.9989 0.0461 -0.0461 -0.9989 1197.7129 1303.4517)" display="inline" fill="none" stroke="#000000" stroke-miterlimit="10" width="72" height="72"/>
      <rect x="619.753" y="626.214" transform="matrix(-0.9989 0.0461 -0.0461 -0.9989 1341.3463 1293.483)" display="inline" fill="none" stroke="#000000" stroke-miterlimit="10" width="72" height="72"/>
      <rect x="691.677" y="622.894" transform="matrix(-0.9989 0.0461 -0.0461 -0.9989 1484.9474 1283.5498)" display="inline" fill="none" stroke="#000000" stroke-miterlimit="10" width="72" height="71.998"/>
      <rect x="763.601" y="619.575" transform="matrix(-0.9989 0.0461 -0.0461 -0.9989 1628.5833 1273.5782)" display="inline" fill="none" stroke="#000000" stroke-miterlimit="10" width="71.998" height="72"/>
      <rect x="263.456" y="714.735" transform="matrix(-0.9989 0.0461 -0.0461 -0.9989 633.2144 1486.8623)" display="inline" fill="none" stroke="#000000" stroke-miterlimit="10" width="71.999" height="72"/>
      <rect x="335.379" y="711.415" transform="matrix(-0.9989 0.0461 -0.0461 -0.9989 776.8308 1476.9087)" display="inline" fill="none" stroke="#000000" stroke-miterlimit="10" width="72" height="72"/>
      <rect x="407.303" y="708.096" transform="matrix(-0.9989 0.0461 -0.0461 -0.9989 920.4283 1466.9697)" display="inline" fill="none" stroke="#000000" stroke-miterlimit="10" width="72" height="72"/>
      <rect x="479.227" y="704.776" transform="matrix(-0.9989 0.0461 -0.0461 -0.9989 1064.0667 1457.0048)" display="inline" fill="none" stroke="#000000" stroke-miterlimit="10" width="72" height="72"/>
      <rect x="551.149" y="701.457" transform="matrix(-0.9989 0.0461 -0.0461 -0.9989 1207.6628 1447.0679)" display="inline" fill="none" stroke="#000000" stroke-miterlimit="10" width="72" height="71.998"/>
      <rect x="623.074" y="698.137" transform="matrix(-0.9989 0.0461 -0.0461 -0.9989 1351.301 1437.1003)" display="inline" fill="none" stroke="#000000" stroke-miterlimit="10" width="71.998" height="72"/>
      <rect x="694.996" y="694.817" transform="matrix(-0.9989 0.0461 -0.0461 -0.9989 1494.9163 1427.1472)" display="inline" fill="none" stroke="#000000" stroke-miterlimit="10" width="72" height="72"/>
      <rect x="766.92" y="691.498" transform="matrix(-0.9989 0.0461 -0.0461 -0.9989 1638.5155 1417.2161)" display="inline" fill="none" stroke="#000000" stroke-miterlimit="10" width="72" height="71.998"/>
      <rect x="266.775" y="786.659" transform="matrix(-0.9989 0.0461 -0.0461 -0.9989 643.1658 1630.4807)" display="inline" fill="none" stroke="#000000" stroke-miterlimit="10" width="72" height="72"/>
      <rect x="338.699" y="783.339" transform="matrix(-0.9989 0.0461 -0.0461 -0.9989 786.7837 1620.5267)" display="inline" fill="none" stroke="#000000" stroke-miterlimit="10" width="72" height="72"/>
      <rect x="410.623" y="780.019" transform="matrix(-0.9989 0.0461 -0.0461 -0.9989 930.3798 1610.5857)" display="inline" fill="none" stroke="#000000" stroke-miterlimit="10" width="71.999" height="71.998"/>
      <rect x="482.545" y="776.7" transform="matrix(-0.9989 0.0461 -0.0461 -0.9989 1074.0172 1600.623)" display="inline" fill="none" stroke="#000000" stroke-miterlimit="10" width="72.001" height="72"/>
      <rect x="554.47" y="773.38" transform="matrix(-0.9989 0.0461 -0.0461 -0.9989 1217.6368 1590.6683)" display="inline" fill="none" stroke="#000000" stroke-miterlimit="10" width="71.998" height="72"/>
      <rect x="626.392" y="770.06" transform="matrix(-0.9989 0.0461 -0.0461 -0.9989 1361.231 1580.7361)" display="inline" fill="none" stroke="#000000" stroke-miterlimit="10" width="72" height="72"/>
      <rect x="698.316" y="766.741" transform="matrix(-0.9989 0.0461 -0.0461 -0.9989 1504.8701 1570.7654)" display="inline" fill="none" stroke="#000000" stroke-miterlimit="10" width="72" height="72"/>
      <rect x="770.239" y="763.421" transform="matrix(-0.9989 0.0461 -0.0461 -0.9989 1648.4862 1560.8115)" display="inline" fill="none" stroke="#000000" stroke-miterlimit="10" width="72" height="72"/>
    </g>
  </g>
</svg>